<svg width="120" height="120" viewBox="0 0 120 120" fill="none" xmlns="http://www.w3.org/2000/svg">
<path d="M74.0625 81.0938C72.7689 81.0938 71.7188 82.1439 71.7188 83.4375C71.7188 84.7311 72.7689 85.7812 74.0625 85.7812C75.3561 85.7812 76.4062 84.7311 76.4062 83.4375C76.4062 82.1439 75.3561 81.0938 74.0625 81.0938Z" fill="#3B4259"/>
<path d="M108.281 0H11.7188C5.25696 0 0 5.25696 0 11.7188V83.4375C0 89.8993 5.25696 95.1562 11.7188 95.1562H48.2812V105.938H45.9375C42.8082 105.938 39.8666 107.157 37.652 109.371C35.4382 111.585 34.2188 114.527 34.2188 117.656C34.2188 118.951 35.2679 120 36.5625 120H83.4375C84.7321 120 85.7812 118.951 85.7812 117.656C85.7812 111.194 80.5243 105.938 74.0625 105.938H71.7188V95.1562H108.281C114.743 95.1562 120 89.8993 120 83.4375V11.7188C120 5.25696 114.743 0 108.281 0ZM11.7188 4.6875H108.281C112.159 4.6875 115.312 7.84149 115.312 11.7188V71.7188H104.531V17.8125C104.531 16.5179 103.482 15.4688 102.188 15.4688H83.4375C82.1429 15.4688 81.0938 16.5179 81.0938 17.8125V71.7188H69.3622C69.3375 69.2944 69.2743 66.9049 69.1736 64.5868C68.7634 55.0415 67.8287 48.6475 67.3425 45.835C72.1783 42.2745 73.4985 35.6754 70.5423 30.5484L62.4188 16.4786C61.9995 15.7535 61.2259 15.3067 60.3891 15.3067C59.5514 15.3067 58.7778 15.7535 58.3594 16.4786L50.2322 30.5493C47.4454 35.3833 48.4332 41.6446 52.8113 45.3397C52.3041 48.1439 51.2805 54.7668 50.8356 64.5822C50.7303 66.925 50.6635 69.3164 50.6378 71.7188H38.9062V36.5625C38.9062 36.1908 38.8184 35.8521 38.6746 35.5508C38.6682 35.5389 38.6646 35.5261 38.6591 35.5142L29.2841 16.7642C28.8867 15.9705 28.0756 15.4688 27.1875 15.4688C26.2994 15.4688 25.4883 15.9705 25.0909 16.7642L15.7159 35.5142C15.7104 35.5261 15.7068 35.5389 15.7013 35.5508C15.5548 35.8548 15.4688 36.199 15.4688 36.5625V71.7188H4.6875V11.7188C4.6875 7.84149 7.84149 4.6875 11.7188 4.6875ZM85.7812 71.7188V20.1562H99.8438V24.8438H97.5C96.2054 24.8438 95.1562 25.8929 95.1562 27.1875C95.1562 28.4821 96.2054 29.5312 97.5 29.5312H99.8438V36.5625H97.5C96.2054 36.5625 95.1562 37.6117 95.1562 38.9062C95.1562 40.2008 96.2054 41.25 97.5 41.25H99.8438V48.2812H97.5C96.2054 48.2812 95.1562 49.3304 95.1562 50.625C95.1562 51.9196 96.2054 52.9688 97.5 52.9688H99.8438V62.3438H97.5C96.2054 62.3438 95.1562 63.3929 95.1562 64.6875C95.1562 65.9821 96.2054 67.0312 97.5 67.0312H99.8438V71.7188H85.7812ZM60.3891 48.1192C61.2405 48.1192 62.0883 48.0212 62.9178 47.8381C63.3527 50.6259 63.9917 55.5588 64.3698 62.3438H55.6458C56.0422 55.5634 56.7114 50.5536 57.1738 47.6715C58.212 47.9672 59.2932 48.1192 60.3891 48.1192ZM60.3891 43.4317C55.0323 43.4317 51.5781 37.6016 54.2926 32.8922L60.3891 22.338L66.4819 32.8912C69.1864 37.5815 65.7797 43.4317 60.3891 43.4317ZM55.4306 67.0312H64.5758C64.6252 68.5712 64.6591 70.1376 64.6756 71.7188H55.3253C55.3427 70.1477 55.3784 68.5812 55.4306 67.0312ZM29.5312 71.7188V38.9062H34.2188V71.7188H29.5312ZM20.1562 71.7188V38.9062H24.8438V71.7188H20.1562ZM21.6046 34.2188L27.1875 23.053L32.7704 34.2188H21.6046ZM80.6918 115.312H39.3054C39.6497 114.336 40.2118 113.44 40.9662 112.685C42.2955 111.357 44.0607 110.625 45.9375 110.625H74.0625C77.1185 110.625 79.725 112.584 80.6918 115.312ZM67.0312 105.938H52.9688V95.1562H67.0312V105.938ZM108.281 90.4688H11.7188C7.84149 90.4688 4.6875 87.3148 4.6875 83.4375V76.4062H115.312V83.4375C115.312 87.3148 112.159 90.4688 108.281 90.4688Z" fill="#3B4259"/>
<path d="M64.6875 81.0938H50.625C49.3304 81.0938 48.2812 82.1429 48.2812 83.4375C48.2812 84.7321 49.3304 85.7812 50.625 85.7812H64.6875C65.9821 85.7812 67.0312 84.7321 67.0312 83.4375C67.0312 82.1429 65.9821 81.0938 64.6875 81.0938Z" fill="#3B4259"/>
</svg>
