<svg width="120" height="120" viewBox="0 0 120 120" fill="none" xmlns="http://www.w3.org/2000/svg">
<path d="M110 100C107 100 104.335 101.356 102.501 103.455L89.7718 97.0926C89.9164 96.4167 90 95.7187 90 95.0001C90 94.2822 89.9168 93.5847 89.7725 92.9092L102.501 86.545C104.336 88.6443 107 89.9999 110 89.9999C115.513 89.9999 120 85.5152 120 79.9998C120 74.4848 115.513 69.9998 110 69.9998C104.487 69.9998 99.9999 74.4845 99.9999 79.9998C99.9999 80.7177 100.083 81.4152 100.227 82.0907L87.4988 88.4549C85.6641 86.3556 82.9995 85 79.9997 85C74.487 85 69.9996 89.4848 69.9996 95.0001C69.9996 100.515 74.4874 105 80 105C82.9993 105 85.6632 103.645 87.4978 101.547L100.228 107.909C100.083 108.585 100 109.282 100 110C100 115.515 104.487 120 110 120C115.513 120 120 115.515 120 110C120 104.485 115.513 100 110 100ZM110 74.9999C112.759 74.9999 115 77.2436 115 79.9998C115 82.7561 112.759 84.9998 110 84.9998C107.241 84.9998 105 82.7561 105 79.9998C105 77.2436 107.241 74.9999 110 74.9999ZM80 100C77.2411 100 75 97.7564 75 95.0001C75 92.2438 77.2414 90.0002 80 90.0002C82.7588 90.0002 84.9999 92.2438 84.9999 95.0001C85.0001 97.7564 82.7588 100 80 100ZM110 115C107.241 115 105 112.756 105 110C105 107.244 107.241 105 110 105C112.759 105 115 107.244 115 110C115 112.756 112.759 115 110 115Z" fill="#3B4259"/>
<path d="M55.0001 60C71.543 60 85.0001 46.5429 85.0001 30C85.0001 13.4571 71.543 0 55.0001 0C38.4572 0 25.0001 13.4571 25.0001 30C25.0001 46.5429 38.457 60 55.0001 60ZM55.0001 4.99992C68.7844 4.99992 80.0002 16.2157 80.0002 30C80.0002 43.7843 68.7844 55.0001 55.0001 55.0001C41.2158 55.0001 30 43.7843 30 30C30 16.2157 41.2158 4.99992 55.0001 4.99992Z" fill="#3B4259"/>
<path d="M67.5 105H10.0001C7.24125 105 5.00016 102.756 5.00016 100V96.3404C5.00016 89.7437 8.67703 83.7598 14.5901 80.7228C24.1165 75.8302 38.8627 70.0002 55.0003 70.0002C69.5072 70.0002 82.8715 74.7976 91.5237 78.8234C92.7689 79.3923 94.263 78.8626 94.8441 77.6101C95.4251 76.3576 94.8832 74.8707 93.633 74.2874C84.5217 70.0515 70.4201 65.0002 55.0003 65.0002C37.8666 65.0002 22.3245 71.1306 12.3049 76.2746C4.7168 80.1711 0 87.8614 0 96.3404V100C0 105.515 4.48734 110 10.0001 110H67.5C68.8819 110 70.0001 108.882 70.0001 107.5C70.0001 106.118 68.8819 105 67.5 105Z" fill="#3B4259"/>
</svg>
