<svg width="120" height="120" viewBox="0 0 120 120" fill="none" xmlns="http://www.w3.org/2000/svg">
<path d="M47.3459 84.0942C46.8927 84.0942 46.4361 83.9383 46.0635 83.621L33.2436 72.7049C32.8014 72.3279 32.5471 71.7773 32.5471 71.1958C32.5471 70.6154 32.8025 70.0648 33.2436 69.6878L46.0635 58.7717C46.896 58.0619 48.1463 58.1625 48.8561 58.995C49.5648 59.8286 49.4653 61.079 48.6317 61.7876L37.584 71.1958L48.6317 80.604C49.4653 81.3137 49.5648 82.5641 48.8561 83.3966C48.4636 83.8576 47.9064 84.0942 47.3459 84.0942Z" fill="#3B4259"/>
<path d="M72.654 84.0942C72.0935 84.0942 71.5363 83.8576 71.1449 83.3966C70.4352 82.5641 70.5358 81.3137 71.3682 80.604L82.4159 71.1958L71.3682 61.7876C70.5358 61.079 70.4352 59.8286 71.1449 58.995C71.8536 58.1625 73.105 58.0619 73.9364 58.7717L86.7563 69.6878C87.1985 70.0648 87.4528 70.6154 87.4528 71.1958C87.4528 71.7773 87.1985 72.3279 86.7563 72.7049L73.9364 83.621C73.5638 83.9383 73.1073 84.0942 72.654 84.0942Z" fill="#3B4259"/>
<path d="M55.4616 92.2818C55.3256 92.2818 55.1885 92.2674 55.0503 92.2387C53.9801 92.0131 53.2947 90.9618 53.5202 89.8916L61.51 51.9572C61.7355 50.887 62.7858 50.2016 63.857 50.4271C64.9272 50.6526 65.6126 51.7029 65.3871 52.7742L57.3974 90.7086C57.2006 91.6417 56.3781 92.2818 55.4616 92.2818Z" fill="#3B4259"/>
<path d="M106.698 112.949H13.3019C5.96772 112.949 0 106.982 0 99.647V20.3774C0 13.0432 5.96772 7.0755 13.3019 7.0755H106.698C114.032 7.0755 120 13.0432 120 20.3774V99.647C120 106.982 114.032 112.949 106.698 112.949ZM13.3019 11.0378C8.15227 11.0378 3.96226 15.2278 3.96226 20.3774V99.647C3.96226 104.797 8.15227 108.987 13.3019 108.987H106.698C111.848 108.987 116.038 104.797 116.038 99.647V20.3774C116.038 15.2278 111.848 11.0378 106.698 11.0378H13.3019Z" fill="#3B4259"/>
<path d="M118.019 38.7991H1.98113C0.886645 38.7991 0 37.9124 0 36.8179C0 35.7245 0.886645 34.8368 1.98113 34.8368H118.019C119.113 34.8368 120 35.7245 120 36.8179C120 37.9124 119.113 38.7991 118.019 38.7991Z" fill="#3B4259"/>
<path d="M33.8496 29.319C30.3937 29.319 27.5801 26.5054 27.5801 23.0494C27.5801 19.5924 30.3937 16.7799 33.8496 16.7799C37.3066 16.7799 40.1191 19.5924 40.1191 23.0494C40.1191 26.5054 37.3066 29.319 33.8496 29.319ZM33.8496 20.7422C32.5782 20.7422 31.5423 21.777 31.5423 23.0494C31.5423 24.3219 32.5782 25.3567 33.8496 25.3567C35.1221 25.3567 36.1569 24.3219 36.1569 23.0494C36.1569 21.777 35.1221 20.7422 33.8496 20.7422Z" fill="#3B4259"/>
<path d="M14.5864 29.2582C11.1294 29.2582 8.31689 26.4457 8.31689 22.9886C8.31689 19.5316 11.1294 16.7191 14.5864 16.7191C18.0435 16.7191 20.856 19.5316 20.856 22.9886C20.856 26.4457 18.0435 29.2582 14.5864 29.2582ZM14.5864 20.6814C13.3151 20.6814 12.2792 21.7173 12.2792 22.9886C12.2792 24.2611 13.3151 25.2959 14.5864 25.2959C15.8589 25.2959 16.8937 24.2611 16.8937 22.9886C16.8937 21.7173 15.8589 20.6814 14.5864 20.6814Z" fill="#3B4259"/>
<path d="M53.1124 29.3787C49.6565 29.3787 46.844 26.5662 46.844 23.1091C46.844 19.6532 49.6565 16.8407 53.1124 16.8407C56.5695 16.8407 59.382 19.6532 59.382 23.1091C59.382 26.5662 56.5695 29.3787 53.1124 29.3787ZM53.1124 20.8019C51.841 20.8019 50.8063 21.8366 50.8063 23.1091C50.8063 24.3816 51.841 25.4164 53.1124 25.4164C54.3849 25.4164 55.4197 24.3816 55.4197 23.1091C55.4197 21.8366 54.3849 20.8019 53.1124 20.8019Z" fill="#3B4259"/>
</svg>
